<svg width="176" height="244" viewBox="0 0 176 244" fill="none" xmlns="http://www.w3.org/2000/svg">
<path d="M170.185 31.8177C151.958 47.2939 135.331 62.6651 119.531 80.7896C81.0575 124.922 47.543 170.742 20.5692 222.558" stroke="white" stroke-width="10" stroke-linecap="round"/>
<path d="M12.3493 189.847C12.8049 191.35 15.8152 205.092 16.3832 206.554C17.2216 208.713 17.8008 210.431 18.1511 212.732C18.4096 214.429 18.5895 215.91 19.2185 217.511C19.6441 218.595 20.9351 223.141 22.5994 223.1C22.9614 223.092 23.2275 222.593 23.4788 222.403C24.1729 221.879 25.0787 221.632 25.8603 221.273C28.7036 219.965 31.675 219.312 34.7109 218.602C40.0772 217.347 58.2329 211.598 63.2184 209.313" stroke="white" stroke-width="10" stroke-linecap="round"/>
</svg>
