<svg xmlns="http://www.w3.org/2000/svg" xmlns:xlink="http://www.w3.org/1999/xlink">
	<symbol id="logo" viewBox="0 0 241 27">
		<path
			d="m0.988 26v-25.2h4.824l10.728 17.784h-2.556l10.548-17.784h4.788l0.072 25.2h-5.472l-0.036-16.812h1.008l-8.424 14.148h-2.628l-8.604-14.148h1.224v16.812h-5.472zm31.071 0 11.232-25.2h5.76l11.268 25.2h-6.12l-9.216-22.248h2.304l-9.252 22.248h-5.976zm5.616-5.4 1.548-4.428h12.96l1.584 4.428h-16.092zm25.258 5.4v-25.2h10.908c2.256 0 4.2 0.372 5.832 1.116 1.632 0.72 2.892 1.764 3.78 3.132s1.332 3 1.332 4.896c0 1.872-0.444 3.492-1.332 4.86-0.888 1.344-2.148 2.376-3.78 3.096s-3.576 1.08-5.832 1.08h-7.668l2.592-2.556v9.576h-5.832zm16.02 0-6.3-9.144h6.228l6.372 9.144h-6.3zm-10.188-8.928-2.592-2.736h7.344c1.8 0 3.144-0.384 4.032-1.152 0.888-0.792 1.332-1.872 1.332-3.24 0-1.392-0.444-2.472-1.332-3.24s-2.232-1.152-4.032-1.152h-7.344l2.592-2.772v14.292zm20.641 8.928v-25.2h5.832v25.2h-5.832zm24.052 0.432c-1.992 0-3.84-0.324-5.544-0.972-1.68-0.648-3.144-1.56-4.392-2.736-1.224-1.176-2.184-2.556-2.88-4.14-0.6715-1.584-1.0075-3.312-1.0075-5.184s0.336-3.6 1.0075-5.184c0.696-1.584 1.668-2.964 2.916-4.14s2.712-2.088 4.392-2.736c1.68-0.648 3.504-0.972 5.472-0.972 1.992 0 3.816 0.324 5.472 0.972 1.68 0.648 3.132 1.56 4.356 2.736 1.248 1.176 2.22 2.556 2.916 4.14 0.696 1.56 1.044 3.288 1.044 5.184 0 1.872-0.348 3.612-1.044 5.22-0.696 1.584-1.668 2.964-2.916 4.14-1.224 1.152-2.676 2.052-4.356 2.7-1.656 0.648-3.468 0.972-5.436 0.972zm-0.036-4.968c1.128 0 2.16-0.192 3.096-0.576 0.96-0.384 1.8-0.936 2.52-1.656s1.272-1.572 1.656-2.556c0.408-0.984 0.612-2.076 0.612-3.276s-0.204-2.292-0.612-3.276c-0.384-0.984-0.936-1.836-1.656-2.556-0.696-0.72-1.524-1.272-2.484-1.656s-2.004-0.576-3.132-0.576-2.172 0.192-3.132 0.576c-0.936 0.384-1.764 0.936-2.484 1.656s-1.284 1.572-1.692 2.556c-0.384 0.984-0.576 2.076-0.576 3.276 0 1.176 0.192 2.268 0.576 3.276 0.408 0.984 0.96 1.836 1.656 2.556 0.72 0.72 1.56 1.272 2.52 1.656s2.004 0.576 3.132 0.576zm39.653 4.968c-1.944 0-3.756-0.312-5.436-0.936-1.656-0.648-3.096-1.56-4.32-2.736s-2.184-2.556-2.88-4.14c-0.672-1.584-1.008-3.324-1.008-5.22s0.336-3.636 1.008-5.22c0.696-1.584 1.656-2.964 2.88-4.14 1.248-1.176 2.7-2.076 4.356-2.7 1.656-0.648 3.468-0.972 5.436-0.972 2.184 0 4.152 0.384 5.904 1.152 1.776 0.744 3.264 1.848 4.464 3.312l-3.744 3.456c-0.864-0.984-1.824-1.716-2.88-2.196-1.056-0.504-2.208-0.756-3.456-0.756-1.176 0-2.256 0.192-3.24 0.576s-1.836 0.936-2.556 1.656-1.284 1.572-1.692 2.556c-0.384 0.984-0.576 2.076-0.576 3.276s0.192 2.292 0.576 3.276c0.408 0.984 0.972 1.836 1.692 2.556s1.572 1.272 2.556 1.656 2.064 0.576 3.24 0.576c1.248 0 2.4-0.24 3.456-0.72 1.056-0.504 2.016-1.26 2.88-2.268l3.744 3.456c-1.2 1.464-2.688 2.58-4.464 3.348-1.752 0.768-3.732 1.152-5.94 1.152zm10.574-0.432 11.232-25.2h5.76l11.268 25.2h-6.12l-9.216-22.248h2.304l-9.252 22.248h-5.976zm5.616-5.4 1.548-4.428h12.96l1.584 4.428h-16.092zm33.538 5.832c-2.016 0-3.948-0.264-5.796-0.792-1.848-0.552-3.336-1.26-4.464-2.124l1.98-4.392c1.08 0.768 2.352 1.404 3.816 1.908 1.488 0.48 2.988 0.72 4.5 0.72 1.152 0 2.076-0.108 2.772-0.324 0.72-0.24 1.248-0.564 1.584-0.972s0.504-0.876 0.504-1.404c0-0.672-0.264-1.2-0.792-1.584-0.528-0.408-1.224-0.732-2.088-0.972-0.864-0.264-1.824-0.504-2.88-0.72-1.032-0.24-2.076-0.528-3.132-0.864-1.032-0.336-1.98-0.768-2.844-1.296s-1.572-1.224-2.124-2.088c-0.528-0.864-0.792-1.968-0.792-3.312 0-1.44 0.384-2.748 1.152-3.924 0.792-1.2 1.968-2.148 3.528-2.844 1.584-0.72 3.564-1.08 5.94-1.08 1.584 0 3.144 0.192 4.68 0.576 1.536 0.36 2.892 0.912 4.068 1.656l-1.8 4.428c-1.176-0.672-2.352-1.164-3.528-1.476-1.176-0.336-2.328-0.504-3.456-0.504s-2.052 0.132-2.772 0.396-1.236 0.612-1.548 1.044c-0.312 0.408-0.468 0.888-0.468 1.44 0 0.648 0.264 1.176 0.792 1.584 0.528 0.384 1.224 0.696 2.088 0.936s1.812 0.48 2.844 0.72c1.056 0.24 2.1 0.516 3.132 0.828 1.056 0.312 2.016 0.732 2.88 1.26s1.56 1.224 2.088 2.088c0.552 0.864 0.828 1.956 0.828 3.276 0 1.416-0.396 2.712-1.188 3.888s-1.98 2.124-3.564 2.844c-1.56 0.72-3.54 1.08-5.94 1.08zm31.957-25.632h5.832v25.2h-5.832v-25.2zm-11.448 25.2h-5.832v-25.2h5.832v25.2zm11.88-10.332h-12.312v-4.932h12.312v4.932z"
			fill="#fff"/>
		<path
			d="m133.32 26.288c-0.96 0-1.788-0.324-2.484-0.972-0.672-0.672-1.008-1.524-1.008-2.556s0.336-1.86 1.008-2.484c0.696-0.648 1.524-0.972 2.484-0.972 0.984 0 1.812 0.324 2.484 0.972 0.672 0.624 1.008 1.452 1.008 2.484s-0.336 1.884-1.008 2.556c-0.672 0.648-1.5 0.972-2.484 0.972z"
			fill="#310081"/>
	</symbol>

	<symbol id="arrow-bottom" viewBox="0 0 35 25">
		<path
			d="m18.319 23.83c-0.3981 0.5687-1.2403 0.5687-1.6384 0l-15.579-22.256c-0.46394-0.66278 0.01021-1.5735 0.81924-1.5735h31.159c0.8091 0 1.2832 0.91068 0.8193 1.5735l-15.579 22.256z"
			fill="#2E0C66"/>
	</symbol>

	<symbol id="telegram" viewBox="0 0 36 36">
		<path
			d="m18 36c9.941 0 18-8.059 18-18 0-9.941-8.059-18-18-18-9.941 0-18 8.059-18 18 0 9.941 8.059 18 18 18zm7.9117-24.5c0.139-1.5768-1.5264-0.9273-1.5264-0.9273-1.2294 0.509-2.4973 1.026-3.7789 1.5487-3.9744 1.6211-8.0798 3.2958-11.577 4.9442-1.8965 0.6956-0.78624 1.3911-0.78624 1.3911l3.0064 0.9277c1.3878 0.4176 2.1276-0.0464 2.1276-0.0464l6.4757-4.4057c2.3126-1.5768 1.7575-0.2783 1.2024 0.2783l-4.8564 4.6375c-0.7402 0.6494-0.3701 1.206-0.0465 1.4843 0.918 0.8096 3.1752 2.291 4.1605 2.9376 0.2564 0.1681 0.4266 0.28 0.4652 0.3088 0.2311 0.1854 1.4799 1.0203 2.3126 0.8349 0.8327-0.1858 0.9252-1.2525 0.9252-1.2525l1.1099-7.2813c0.1663-1.264 0.3575-2.479 0.5101-3.4495 0.144-0.9166 0.2538-1.6146 0.2761-1.9304z"
			clip-rule="evenodd" fill="#fff" fill-rule="evenodd"/>
	</symbol>
</svg>